<svg width="34" height="34" viewBox="0 0 34 34" fill="none" xmlns="http://www.w3.org/2000/svg">
<g id="Language" filter="url(#filter0_d_106_1109)">
<g clip-path="url(#clip0_106_1109)">
<path id="Vector" d="M4 4H29V29H4V4Z" fill="#012169"/>
<path id="Vector_2" d="M6.92969 4L16.4609 13.4271L25.9531 4H29V7.22917L19.625 16.5521L29 25.8229V29H25.875L16.5 19.6771L7.16406 29H4V25.875L13.3359 16.6042L4 7.33333V4H6.92969Z" fill="white"/>
<path id="Vector_3" d="M20.5625 18.6354L29 26.9167V29L18.4141 18.6354H20.5625ZM13.375 19.6771L13.6094 21.5L6.10938 29H4L13.375 19.6771ZM29 4V4.15625L19.2734 13.9479L19.3516 11.6562L27.0469 4H29ZM4 4L13.3359 13.1667H10.9922L4 6.1875V4Z" fill="#C8102E"/>
<path id="Vector_4" d="M13.4141 4V29H19.6641V4H13.4141ZM4 12.3333V20.6667H29V12.3333H4Z" fill="white"/>
<path id="Vector_5" d="M4 14.0521V19.0521H29V14.0521H4ZM14.6641 4V29H18.4141V4H14.6641Z" fill="#C8102E"/>
</g>
<rect x="4.0625" y="4.0625" width="24.875" height="24.875" rx="12.4375" stroke="#997404" stroke-width="0.125" shape-rendering="crispEdges"/>
</g>
<defs>
<filter id="filter0_d_106_1109" x="0.2" y="0.5" width="33" height="33" filterUnits="userSpaceOnUse" color-interpolation-filters="sRGB">
<feFlood flood-opacity="0" result="BackgroundImageFix"/>
<feColorMatrix in="SourceAlpha" type="matrix" values="0 0 0 0 0 0 0 0 0 0 0 0 0 0 0 0 0 0 127 0" result="hardAlpha"/>
<feOffset dx="0.2" dy="0.5"/>
<feGaussianBlur stdDeviation="2"/>
<feComposite in2="hardAlpha" operator="out"/>
<feColorMatrix type="matrix" values="0 0 0 0 0 0 0 0 0 0 0 0 0 0 0 0 0 0 0.25 0"/>
<feBlend mode="normal" in2="BackgroundImageFix" result="effect1_dropShadow_106_1109"/>
<feBlend mode="normal" in="SourceGraphic" in2="effect1_dropShadow_106_1109" result="shape"/>
</filter>
<clipPath id="clip0_106_1109">
<rect x="4" y="4" width="25" height="25" rx="12.5" fill="white"/>
</clipPath>
</defs>
</svg>
