<svg width="351" height="12" viewBox="0 0 351 12" fill="none" xmlns="http://www.w3.org/2000/svg">
<path d="M0.666667 6C0.666667 8.94552 3.05448 11.3333 6 11.3333C8.94552 11.3333 11.3333 8.94552 11.3333 6C11.3333 3.05448 8.94552 0.666667 6 0.666667C3.05448 0.666667 0.666667 3.05448 0.666667 6ZM339.667 6C339.667 8.94552 342.054 11.3333 345 11.3333C347.946 11.3333 350.333 8.94552 350.333 6C350.333 3.05448 347.946 0.666667 345 0.666667C342.054 0.666667 339.667 3.05448 339.667 6ZM6 7L345 7V5L6 5V7Z" fill="black"/>
</svg>
