<svg width="24" height="26" viewBox="0 0 24 26" fill="none" xmlns="http://www.w3.org/2000/svg">
<path d="M11.9397 21.8945C12.1029 22.0143 12.2988 22.0787 12.4997 22.0787C12.7007 22.0787 12.8965 22.0143 13.0597 21.8945C17.8887 18.3775 23.0137 11.1433 17.8327 5.91582C16.4104 4.48618 14.4949 3.68538 12.4997 3.68628C10.4997 3.68628 8.58073 4.48838 7.16673 5.9148C1.98573 11.1423 7.11073 18.3755 11.9397 21.8945Z" stroke="black" stroke-width="1.5" stroke-linecap="round" stroke-linejoin="round"/>
<path d="M12 12.8823C11.4696 12.8823 10.9609 12.667 10.5858 12.2838C10.2107 11.9005 10 11.3807 10 10.8387C10 10.2967 10.2107 9.77696 10.5858 9.39372C10.9609 9.01047 11.4696 8.79517 12 8.79517C12.5304 8.79517 13.0391 9.01047 13.4142 9.39372C13.7893 9.77696 14 10.2967 14 10.8387C14 11.3807 13.7893 11.9005 13.4142 12.2838C13.0391 12.667 12.5304 12.8823 12 12.8823Z" stroke="black" stroke-width="1.5" stroke-linecap="round" stroke-linejoin="round"/>
</svg>
