<svg width="24" height="24" viewBox="0 0 24 24" fill="none" xmlns="http://www.w3.org/2000/svg">
<path d="M0.75 19.35C0.75 19.575 0.7125 20.625 2.1 20.625H21.9375C22.1625 20.625 23.2125 20.4375 23.25 19.425V13.9125C23.25 10.875 21.9 6.375 17.5875 6.375H2.55C0.75 6.375 0.75 7.575 0.75 9.525V19.35Z" fill="#DAE3EA"/>
<path d="M0.75 18.675C0.75 19.6125 0.75 20.625 2.1 20.625H21.9375C22.1625 20.625 23.2125 20.4375 23.25 19.425V18.2625H0.75V18.675Z" fill="#C5D0D8"/>
<path d="M21.0375 13.5001H19.35C18.0375 12.0001 16.275 12.0001 16.275 12.0001V7.3501C18.9375 7.3501 21.0375 8.7751 21.0375 13.5001ZM23.25 14.4376H22.125C22.125 14.4376 22.2375 9.2626 20.175 7.8001H21.075C21.075 7.7626 23.4 9.5626 23.25 14.4376ZM15.225 7.3501H2.0625V12.0001H15.225V7.3501ZM21.6 19.4251C21.6 19.8376 21.8625 20.1751 22.2 20.1751C22.4625 20.1751 22.4625 20.1751 22.4625 19.4251C22.4625 18.6751 22.4625 18.6751 22.2 18.6751C21.9 18.6751 21.6 19.0126 21.6 19.4251Z" fill="#3E4347"/>
<path d="M21.7875 19.425C21.7875 19.6875 21.975 19.9125 22.2 19.9125C22.3875 19.9125 22.3875 19.9125 22.3875 19.425C22.3875 18.9375 22.3875 18.9375 22.2 18.9375C21.975 18.9375 21.7875 19.1625 21.7875 19.425Z" fill="white"/>
<path d="M0.749988 16.9876L1.61249 15.9001V14.8501H0.749988V16.9876Z" fill="#F15744"/>
<path d="M1.61249 13.7624L0.749988 12.7124V14.8499H1.61249V13.7624Z" fill="#FFD45C"/>
<path d="M20.025 17.0626H22.2V15.9376L20.025 15.6001V17.0626Z" fill="#3E4347"/>
<path d="M20.5875 16.9125H22.125V16.0875L20.5875 15.8625V16.9125Z" fill="white"/>
<path d="M0.75039 17.4751H10.8004C12.4129 17.4751 12.9004 18.2626 12.9004 18.2626H0.75039V17.4751Z" fill="#62727A"/>
<path d="M1.42461 20.5125C1.42461 18.5625 2.99961 16.9875 4.94961 16.9875C6.89961 16.9875 8.47461 18.5625 8.47461 20.5125C8.43711 21.45 1.42461 21.45 1.42461 20.5125Z" fill="#C5D0D8"/>
<path d="M2.28749 20.5875C2.28749 19.125 3.48749 17.925 4.94999 17.925C6.41249 17.925 7.61249 19.125 7.61249 20.5875C7.61249 22.05 6.41249 23.25 4.94999 23.25C3.48749 23.25 2.28749 22.05 2.28749 20.5875Z" fill="#3E4347"/>
<path d="M4.95001 22.0874C4.12159 22.0874 3.45001 21.4158 3.45001 20.5874C3.45001 19.759 4.12159 19.0874 4.95001 19.0874C5.77844 19.0874 6.45001 19.759 6.45001 20.5874C6.45001 21.4158 5.77844 22.0874 4.95001 22.0874Z" fill="#DAE3EA"/>
<path d="M4.95001 19.4624C4.74291 19.4624 4.57501 19.2945 4.57501 19.0874C4.57501 18.8803 4.74291 18.7124 4.95001 18.7124C5.15712 18.7124 5.32501 18.8803 5.32501 19.0874C5.32501 19.2945 5.15712 19.4624 4.95001 19.4624Z" fill="#3E4347"/>
<path d="M6.26251 20.2124C6.05541 20.2124 5.88751 20.0445 5.88751 19.8374C5.88751 19.6303 6.05541 19.4624 6.26251 19.4624C6.46962 19.4624 6.63751 19.6303 6.63751 19.8374C6.63751 20.0445 6.46962 20.2124 6.26251 20.2124Z" fill="#3E4347"/>
<path d="M6.26251 21.7124C6.05541 21.7124 5.88751 21.5445 5.88751 21.3374C5.88751 21.1303 6.05541 20.9624 6.26251 20.9624C6.46962 20.9624 6.63751 21.1303 6.63751 21.3374C6.63751 21.5445 6.46962 21.7124 6.26251 21.7124Z" fill="#3E4347"/>
<path d="M4.95001 22.5C4.74291 22.5 4.57501 22.3321 4.57501 22.125C4.57501 21.9179 4.74291 21.75 4.95001 21.75C5.15712 21.75 5.32501 21.9179 5.32501 22.125C5.32501 22.3321 5.15712 22.5 4.95001 22.5Z" fill="#3E4347"/>
<path d="M3.63751 21.7124C3.43041 21.7124 3.26251 21.5445 3.26251 21.3374C3.26251 21.1303 3.43041 20.9624 3.63751 20.9624C3.84462 20.9624 4.01251 21.1303 4.01251 21.3374C4.01251 21.5445 3.84462 21.7124 3.63751 21.7124Z" fill="#3E4347"/>
<path d="M3.45028 20.1749C3.63778 20.2874 3.86278 20.2124 3.97528 20.0249C4.08778 19.8374 4.01278 19.6124 3.82528 19.4999C3.63778 19.3874 3.41278 19.4624 3.30028 19.6499C3.18778 19.8374 3.26278 20.0624 3.45028 20.1749Z" fill="#3E4347"/>
<path d="M4.95001 21.3374C4.5358 21.3374 4.20001 21.0016 4.20001 20.5874C4.20001 20.1732 4.5358 19.8374 4.95001 19.8374C5.36423 19.8374 5.70001 20.1732 5.70001 20.5874C5.70001 21.0016 5.36423 21.3374 4.95001 21.3374Z" fill="#62727A"/>
<path d="M13.3875 20.5125C13.3875 18.5625 14.9625 16.9875 16.9125 16.9875C18.8625 16.9875 20.4375 18.5625 20.4375 20.5125C20.4375 21.45 13.3875 21.45 13.3875 20.5125Z" fill="#C5D0D8"/>
<path d="M14.25 20.5875C14.25 19.125 15.45 17.925 16.9125 17.925C18.375 17.925 19.575 19.125 19.575 20.5875C19.575 22.05 18.375 23.25 16.9125 23.25C15.45 23.25 14.25 22.05 14.25 20.5875Z" fill="#3E4347"/>
<path d="M15.4121 20.5874C15.4121 19.7624 16.0871 19.0874 16.9121 19.0874C17.7371 19.0874 18.4121 19.7624 18.4121 20.5874C18.4121 21.4124 17.7371 22.0874 16.9121 22.0874C16.0871 22.1249 15.4121 21.4499 15.4121 20.5874Z" fill="#DAE3EA"/>
<path d="M16.9122 19.4624C16.7051 19.4624 16.5372 19.2945 16.5372 19.0874C16.5372 18.8803 16.7051 18.7124 16.9122 18.7124C17.1193 18.7124 17.2872 18.8803 17.2872 19.0874C17.2872 19.2945 17.1193 19.4624 16.9122 19.4624Z" fill="#3E4347"/>
<path d="M18.2247 20.2124C18.0176 20.2124 17.8497 20.0445 17.8497 19.8374C17.8497 19.6303 18.0176 19.4624 18.2247 19.4624C18.4318 19.4624 18.5997 19.6303 18.5997 19.8374C18.5997 20.0445 18.4318 20.2124 18.2247 20.2124Z" fill="#3E4347"/>
<path d="M18.4125 21.0375C18.225 20.925 18 21 17.8875 21.1875C17.775 21.375 17.85 21.6 18.0375 21.7125C18.225 21.825 18.45 21.75 18.5625 21.5625C18.675 21.375 18.6 21.1125 18.4125 21.0375Z" fill="#3E4347"/>
<path d="M16.9122 22.5C16.7051 22.5 16.5372 22.3321 16.5372 22.125C16.5372 21.9179 16.7051 21.75 16.9122 21.75C17.1193 21.75 17.2872 21.9179 17.2872 22.125C17.2872 22.3321 17.1193 22.5 16.9122 22.5Z" fill="#3E4347"/>
<path d="M15.5997 21.7124C15.3926 21.7124 15.2247 21.5445 15.2247 21.3374C15.2247 21.1303 15.3926 20.9624 15.5997 20.9624C15.8068 20.9624 15.9747 21.1303 15.9747 21.3374C15.9747 21.5445 15.8068 21.7124 15.5997 21.7124Z" fill="#3E4347"/>
<path d="M15.5997 20.2124C15.3926 20.2124 15.2247 20.0445 15.2247 19.8374C15.2247 19.6303 15.3926 19.4624 15.5997 19.4624C15.8068 19.4624 15.9747 19.6303 15.9747 19.8374C15.9747 20.0445 15.8068 20.2124 15.5997 20.2124Z" fill="#3E4347"/>
<path d="M16.9121 21.3376C16.4979 21.3376 16.1621 21.0019 16.1621 20.5876C16.1621 20.1734 16.4979 19.8376 16.9121 19.8376C17.3263 19.8376 17.6621 20.1734 17.6621 20.5876C17.6621 21.0019 17.3263 21.3376 16.9121 21.3376Z" fill="#62727A"/>
<path d="M9.3 13.6125H3.675V13.95H9.3V13.6125ZM14.55 14.1C14.55 14.2125 14.625 14.2875 14.7375 14.2875C14.85 14.2875 14.925 14.2125 14.925 14.1V13.05C14.925 12.9375 14.85 12.8625 14.7375 12.8625C14.625 12.8625 14.55 12.9375 14.55 13.05V14.1ZM17.4375 13.6875C17.55 13.6875 17.625 13.6125 17.625 13.5C17.625 13.3875 17.55 13.3125 17.4375 13.3125H16.3875C16.275 13.3125 16.2 13.3875 16.2 13.5C16.2 13.6125 16.275 13.6875 16.3875 13.6875H17.4375ZM23.25 15.6H22.5375V17.7H23.25V15.6Z" fill="#62727A"/>
</svg>
