<svg width="133" height="20" viewBox="0 0 133 20" fill="none" xmlns="http://www.w3.org/2000/svg">
<path d="M5.88477 8.95508H2.22266L2.20312 6.70898H5.17188C5.70573 6.70898 6.13216 6.65039 6.45117 6.5332C6.77018 6.40951 7.0013 6.23047 7.14453 5.99609C7.29427 5.76172 7.36914 5.46875 7.36914 5.11719C7.36914 4.71354 7.29427 4.38802 7.14453 4.14062C6.99479 3.89323 6.75716 3.71419 6.43164 3.60352C6.11263 3.48633 5.69922 3.42773 5.19141 3.42773H3.51172V15H0.0839844V0.78125H5.19141C6.07031 0.78125 6.85482 0.86263 7.54492 1.02539C8.23503 1.18164 8.82096 1.42253 9.30273 1.74805C9.79102 2.07357 10.1621 2.48372 10.416 2.97852C10.6699 3.4668 10.7969 4.04297 10.7969 4.70703C10.7969 5.28646 10.6732 5.83008 10.4258 6.33789C10.1784 6.8457 9.76497 7.25911 9.18555 7.57812C8.61263 7.89062 7.82812 8.05339 6.83203 8.06641L5.88477 8.95508ZM5.74805 15H1.39258L2.56445 12.3633H5.74805C6.2168 12.3633 6.59115 12.2917 6.87109 12.1484C7.15755 11.9987 7.36263 11.8034 7.48633 11.5625C7.61654 11.3151 7.68164 11.0417 7.68164 10.7422C7.68164 10.3776 7.61979 10.0618 7.49609 9.79492C7.37891 9.52799 7.1901 9.32292 6.92969 9.17969C6.66927 9.02995 6.32096 8.95508 5.88477 8.95508H3.00391L3.02344 6.70898H6.4707L7.27148 7.60742C8.22201 7.56836 8.97396 7.70182 9.52734 8.00781C10.0872 8.3138 10.4876 8.71745 10.7285 9.21875C10.9694 9.72005 11.0898 10.2441 11.0898 10.791C11.0898 11.722 10.888 12.5 10.4844 13.125C10.0872 13.75 9.49154 14.2188 8.69727 14.5312C7.90299 14.8438 6.91992 15 5.74805 15ZM12.4277 9.82422V9.61914C12.4277 8.8444 12.5384 8.13151 12.7598 7.48047C12.9811 6.82292 13.3066 6.25326 13.7363 5.77148C14.166 5.28971 14.6966 4.91536 15.3281 4.64844C15.9596 4.375 16.6888 4.23828 17.5156 4.23828C18.349 4.23828 19.0814 4.375 19.7129 4.64844C20.3509 4.91536 20.8848 5.28971 21.3145 5.77148C21.7441 6.25326 22.0697 6.82292 22.291 7.48047C22.5124 8.13151 22.623 8.8444 22.623 9.61914V9.82422C22.623 10.5924 22.5124 11.3053 22.291 11.9629C22.0697 12.6139 21.7441 13.1836 21.3145 13.6719C20.8848 14.1536 20.3542 14.528 19.7227 14.7949C19.0911 15.0618 18.362 15.1953 17.5352 15.1953C16.7083 15.1953 15.9759 15.0618 15.3379 14.7949C14.6999 14.528 14.166 14.1536 13.7363 13.6719C13.3066 13.1836 12.9811 12.6139 12.7598 11.9629C12.5384 11.3053 12.4277 10.5924 12.4277 9.82422ZM15.7188 9.61914V9.82422C15.7188 10.2214 15.748 10.5924 15.8066 10.9375C15.8652 11.2826 15.9629 11.5853 16.0996 11.8457C16.2363 12.0996 16.4219 12.2982 16.6562 12.4414C16.8906 12.5846 17.1836 12.6562 17.5352 12.6562C17.8802 12.6562 18.1667 12.5846 18.3945 12.4414C18.6289 12.2982 18.8145 12.0996 18.9512 11.8457C19.0879 11.5853 19.1855 11.2826 19.2441 10.9375C19.3027 10.5924 19.332 10.2214 19.332 9.82422V9.61914C19.332 9.23503 19.3027 8.8737 19.2441 8.53516C19.1855 8.1901 19.0879 7.88737 18.9512 7.62695C18.8145 7.36003 18.6289 7.15169 18.3945 7.00195C18.1602 6.85221 17.8672 6.77734 17.5156 6.77734C17.1706 6.77734 16.8809 6.85221 16.6465 7.00195C16.4186 7.15169 16.2363 7.36003 16.0996 7.62695C15.9629 7.88737 15.8652 8.1901 15.8066 8.53516C15.748 8.8737 15.7188 9.23503 15.7188 9.61914ZM23.6777 9.82422V9.61914C23.6777 8.8444 23.7884 8.13151 24.0098 7.48047C24.2311 6.82292 24.5566 6.25326 24.9863 5.77148C25.416 5.28971 25.9466 4.91536 26.5781 4.64844C27.2096 4.375 27.9388 4.23828 28.7656 4.23828C29.599 4.23828 30.3314 4.375 30.9629 4.64844C31.6009 4.91536 32.1348 5.28971 32.5645 5.77148C32.9941 6.25326 33.3197 6.82292 33.541 7.48047C33.7624 8.13151 33.873 8.8444 33.873 9.61914V9.82422C33.873 10.5924 33.7624 11.3053 33.541 11.9629C33.3197 12.6139 32.9941 13.1836 32.5645 13.6719C32.1348 14.1536 31.6042 14.528 30.9727 14.7949C30.3411 15.0618 29.612 15.1953 28.7852 15.1953C27.9583 15.1953 27.2259 15.0618 26.5879 14.7949C25.9499 14.528 25.416 14.1536 24.9863 13.6719C24.5566 13.1836 24.2311 12.6139 24.0098 11.9629C23.7884 11.3053 23.6777 10.5924 23.6777 9.82422ZM26.9688 9.61914V9.82422C26.9688 10.2214 26.998 10.5924 27.0566 10.9375C27.1152 11.2826 27.2129 11.5853 27.3496 11.8457C27.4863 12.0996 27.6719 12.2982 27.9062 12.4414C28.1406 12.5846 28.4336 12.6562 28.7852 12.6562C29.1302 12.6562 29.4167 12.5846 29.6445 12.4414C29.8789 12.2982 30.0645 12.0996 30.2012 11.8457C30.3379 11.5853 30.4355 11.2826 30.4941 10.9375C30.5527 10.5924 30.582 10.2214 30.582 9.82422V9.61914C30.582 9.23503 30.5527 8.8737 30.4941 8.53516C30.4355 8.1901 30.3379 7.88737 30.2012 7.62695C30.0645 7.36003 29.8789 7.15169 29.6445 7.00195C29.4102 6.85221 29.1172 6.77734 28.7656 6.77734C28.4206 6.77734 28.1309 6.85221 27.8965 7.00195C27.6686 7.15169 27.4863 7.36003 27.3496 7.62695C27.2129 7.88737 27.1152 8.1901 27.0566 8.53516C26.998 8.8737 26.9688 9.23503 26.9688 9.61914ZM38.6582 -0.00976562V15H35.3672V-0.00976562H38.6582ZM45.416 4.43359L40.8262 9.81445L38.4238 12.2168L36.9883 10.127L38.9902 7.51953L41.4707 4.43359H45.416ZM41.8906 15L39.0684 10.1855L41.5 8.45703L45.6602 15H41.8906ZM53.9902 0.78125L56.6074 6.95312L59.2344 0.78125H62.9258L58.3555 9.89258V15H54.8691V9.89258L50.2891 0.78125H53.9902ZM62.7598 9.82422V9.61914C62.7598 8.8444 62.8704 8.13151 63.0918 7.48047C63.3132 6.82292 63.6387 6.25326 64.0684 5.77148C64.498 5.28971 65.0286 4.91536 65.6602 4.64844C66.2917 4.375 67.0208 4.23828 67.8477 4.23828C68.681 4.23828 69.4134 4.375 70.0449 4.64844C70.6829 4.91536 71.2168 5.28971 71.6465 5.77148C72.0762 6.25326 72.4017 6.82292 72.623 7.48047C72.8444 8.13151 72.9551 8.8444 72.9551 9.61914V9.82422C72.9551 10.5924 72.8444 11.3053 72.623 11.9629C72.4017 12.6139 72.0762 13.1836 71.6465 13.6719C71.2168 14.1536 70.6862 14.528 70.0547 14.7949C69.4232 15.0618 68.694 15.1953 67.8672 15.1953C67.0404 15.1953 66.3079 15.0618 65.6699 14.7949C65.0319 14.528 64.498 14.1536 64.0684 13.6719C63.6387 13.1836 63.3132 12.6139 63.0918 11.9629C62.8704 11.3053 62.7598 10.5924 62.7598 9.82422ZM66.0508 9.61914V9.82422C66.0508 10.2214 66.0801 10.5924 66.1387 10.9375C66.1973 11.2826 66.2949 11.5853 66.4316 11.8457C66.5684 12.0996 66.7539 12.2982 66.9883 12.4414C67.2227 12.5846 67.5156 12.6562 67.8672 12.6562C68.2122 12.6562 68.4987 12.5846 68.7266 12.4414C68.9609 12.2982 69.1465 12.0996 69.2832 11.8457C69.4199 11.5853 69.5176 11.2826 69.5762 10.9375C69.6348 10.5924 69.6641 10.2214 69.6641 9.82422V9.61914C69.6641 9.23503 69.6348 8.8737 69.5762 8.53516C69.5176 8.1901 69.4199 7.88737 69.2832 7.62695C69.1465 7.36003 68.9609 7.15169 68.7266 7.00195C68.4922 6.85221 68.1992 6.77734 67.8477 6.77734C67.5026 6.77734 67.2129 6.85221 66.9785 7.00195C66.7507 7.15169 66.5684 7.36003 66.4316 7.62695C66.2949 7.88737 66.1973 8.1901 66.1387 8.53516C66.0801 8.8737 66.0508 9.23503 66.0508 9.61914ZM80.5918 12.4316V4.43359H83.8926V15H80.8066L80.5918 12.4316ZM80.9043 10.2832L81.7637 10.2637C81.7637 10.9733 81.679 11.6309 81.5098 12.2363C81.3405 12.8353 81.0898 13.3561 80.7578 13.7988C80.4323 14.2415 80.0286 14.5866 79.5469 14.834C79.0716 15.0749 78.5215 15.1953 77.8965 15.1953C77.3757 15.1953 76.8971 15.1237 76.4609 14.9805C76.0312 14.8307 75.6602 14.5996 75.3477 14.2871C75.0352 13.9681 74.791 13.5612 74.6152 13.0664C74.446 12.5651 74.3613 11.9661 74.3613 11.2695V4.43359H77.6523V11.2891C77.6523 11.5234 77.6816 11.7253 77.7402 11.8945C77.7988 12.0638 77.8835 12.207 77.9941 12.3242C78.1048 12.4349 78.2415 12.5195 78.4043 12.5781C78.5736 12.6302 78.7656 12.6562 78.9805 12.6562C79.4753 12.6562 79.8626 12.5521 80.1426 12.3438C80.4225 12.1354 80.6178 11.8522 80.7285 11.4941C80.8457 11.1361 80.9043 10.7324 80.9043 10.2832ZM89.0293 7.05078V15H85.7383V4.43359H88.8145L89.0293 7.05078ZM92.1543 4.35547L92.0957 7.41211C91.9655 7.39909 91.7897 7.38281 91.5684 7.36328C91.347 7.34375 91.1615 7.33398 91.0117 7.33398C90.6276 7.33398 90.2956 7.37956 90.0156 7.4707C89.7422 7.55534 89.5143 7.68555 89.332 7.86133C89.1562 8.0306 89.026 8.24544 88.9414 8.50586C88.8633 8.76628 88.8275 9.06901 88.834 9.41406L88.2383 9.02344C88.2383 8.3138 88.3066 7.66927 88.4434 7.08984C88.5866 6.50391 88.7884 5.99935 89.0488 5.57617C89.3092 5.14648 89.625 4.81771 89.9961 4.58984C90.3672 4.35547 90.7839 4.23828 91.2461 4.23828C91.4089 4.23828 91.5684 4.24805 91.7246 4.26758C91.8874 4.28711 92.0306 4.31641 92.1543 4.35547ZM104.723 0.78125V15H101.295V0.78125H104.723ZM109 0.78125V3.42773H97.1152V0.78125H109ZM112.975 7.05078V15H109.684V4.43359H112.76L112.975 7.05078ZM116.1 4.35547L116.041 7.41211C115.911 7.39909 115.735 7.38281 115.514 7.36328C115.292 7.34375 115.107 7.33398 114.957 7.33398C114.573 7.33398 114.241 7.37956 113.961 7.4707C113.688 7.55534 113.46 7.68555 113.277 7.86133C113.102 8.0306 112.971 8.24544 112.887 8.50586C112.809 8.76628 112.773 9.06901 112.779 9.41406L112.184 9.02344C112.184 8.3138 112.252 7.66927 112.389 7.08984C112.532 6.50391 112.734 5.99935 112.994 5.57617C113.255 5.14648 113.57 4.81771 113.941 4.58984C114.312 4.35547 114.729 4.23828 115.191 4.23828C115.354 4.23828 115.514 4.24805 115.67 4.26758C115.833 4.28711 115.976 4.31641 116.1 4.35547ZM120.709 4.43359V15H117.408V4.43359H120.709ZM117.213 1.70898C117.213 1.24023 117.382 0.85612 117.721 0.556641C118.059 0.257161 118.499 0.107422 119.039 0.107422C119.579 0.107422 120.019 0.257161 120.357 0.556641C120.696 0.85612 120.865 1.24023 120.865 1.70898C120.865 2.17773 120.696 2.56185 120.357 2.86133C120.019 3.16081 119.579 3.31055 119.039 3.31055C118.499 3.31055 118.059 3.16081 117.721 2.86133C117.382 2.56185 117.213 2.17773 117.213 1.70898ZM126.061 6.46484V19.0625H122.77V4.43359H125.836L126.061 6.46484ZM132.545 9.58984V9.79492C132.545 10.5632 132.457 11.276 132.281 11.9336C132.105 12.5911 131.845 13.1641 131.5 13.6523C131.155 14.1406 130.725 14.5215 130.211 14.7949C129.703 15.0618 129.114 15.1953 128.443 15.1953C127.812 15.1953 127.268 15.0553 126.812 14.7754C126.357 14.4954 125.976 14.1081 125.67 13.6133C125.364 13.1185 125.117 12.5521 124.928 11.9141C124.739 11.276 124.589 10.6022 124.479 9.89258V9.62891C124.589 8.86719 124.739 8.16081 124.928 7.50977C125.117 6.85221 125.364 6.2793 125.67 5.79102C125.976 5.30273 126.354 4.92188 126.803 4.64844C127.258 4.375 127.802 4.23828 128.434 4.23828C129.104 4.23828 129.693 4.36523 130.201 4.61914C130.715 4.87305 131.145 5.23763 131.49 5.71289C131.842 6.18164 132.105 6.74479 132.281 7.40234C132.457 8.0599 132.545 8.78906 132.545 9.58984ZM129.254 9.79492V9.58984C129.254 9.17969 129.225 8.80534 129.166 8.4668C129.107 8.12174 129.013 7.82227 128.883 7.56836C128.759 7.31445 128.593 7.11914 128.385 6.98242C128.176 6.8457 127.919 6.77734 127.613 6.77734C127.262 6.77734 126.965 6.83268 126.725 6.94336C126.49 7.04753 126.301 7.21029 126.158 7.43164C126.021 7.64648 125.924 7.91667 125.865 8.24219C125.813 8.5612 125.79 8.93555 125.797 9.36523V10.166C125.784 10.6608 125.833 11.097 125.943 11.4746C126.054 11.8457 126.246 12.1354 126.52 12.3438C126.793 12.5521 127.164 12.6562 127.633 12.6562C127.945 12.6562 128.206 12.5846 128.414 12.4414C128.622 12.2917 128.788 12.0866 128.912 11.8262C129.036 11.5592 129.124 11.2533 129.176 10.9082C129.228 10.5632 129.254 10.1921 129.254 9.79492Z" fill="white"/>
</svg>
